<mxfile host="app.diagrams.net" modified="2022-01-05T04:07:32.142Z" agent="5.0 (Windows NT 10.0; Win64; x64) AppleWebKit/537.36 (KHTML, like Gecko) Chrome/96.0.4664.110 Safari/537.36" etag="mUzcEnuKHsW1Qm1qBg9b" version="16.2.1" type="github">
  <diagram id="kgpKYQtTHZ0yAKxKKP6v" name="Page-1">
    <mxGraphModel dx="1824" dy="982" grid="1" gridSize="10" guides="1" tooltips="1" connect="1" arrows="1" fold="1" page="1" pageScale="1" pageWidth="850" pageHeight="1100" math="0" shadow="0">
      <root>
        <mxCell id="0" />
        <mxCell id="1" parent="0" />
        <mxCell id="FQo9Qr92jJREoeUoj_u--41" value="alt" style="shape=umlFrame;whiteSpace=wrap;html=1;" vertex="1" parent="1">
          <mxGeometry x="185" y="603" width="1005" height="777" as="geometry" />
        </mxCell>
        <mxCell id="FQo9Qr92jJREoeUoj_u--32" value="loop(1,3)" style="shape=umlFrame;whiteSpace=wrap;html=1;" vertex="1" parent="1">
          <mxGeometry x="10" y="300" width="960" height="180" as="geometry" />
        </mxCell>
        <mxCell id="3nuBFxr9cyL0pnOWT2aG-1" value=":Customer" style="shape=umlLifeline;perimeter=lifelinePerimeter;container=1;collapsible=0;recursiveResize=0;rounded=0;shadow=0;strokeWidth=1;" parent="1" vertex="1">
          <mxGeometry x="30" y="240" width="100" height="1330" as="geometry" />
        </mxCell>
        <mxCell id="3nuBFxr9cyL0pnOWT2aG-2" value="" style="points=[];perimeter=orthogonalPerimeter;rounded=0;shadow=0;strokeWidth=1;" parent="3nuBFxr9cyL0pnOWT2aG-1" vertex="1">
          <mxGeometry x="45" y="70" width="10" height="1260" as="geometry" />
        </mxCell>
        <mxCell id="3nuBFxr9cyL0pnOWT2aG-5" value=":Card Reader" style="shape=umlLifeline;perimeter=lifelinePerimeter;container=1;collapsible=0;recursiveResize=0;rounded=0;shadow=0;strokeWidth=1;" parent="1" vertex="1">
          <mxGeometry x="360" y="240" width="110" height="1210" as="geometry" />
        </mxCell>
        <mxCell id="3nuBFxr9cyL0pnOWT2aG-6" value="" style="points=[];perimeter=orthogonalPerimeter;rounded=0;shadow=0;strokeWidth=1;" parent="3nuBFxr9cyL0pnOWT2aG-5" vertex="1">
          <mxGeometry x="45" y="80" width="10" height="1130" as="geometry" />
        </mxCell>
        <mxCell id="FQo9Qr92jJREoeUoj_u--14" value="readCardNumber()" style="verticalAlign=bottom;endArrow=block;shadow=0;strokeWidth=1;" edge="1" parent="3nuBFxr9cyL0pnOWT2aG-5">
          <mxGeometry relative="1" as="geometry">
            <mxPoint x="-95" y="110" as="sourcePoint" />
            <mxPoint x="40" y="110" as="targetPoint" />
            <Array as="points">
              <mxPoint x="20" y="110" />
            </Array>
          </mxGeometry>
        </mxCell>
        <mxCell id="FQo9Qr92jJREoeUoj_u--34" value="createSession(card,PIN)" style="verticalAlign=bottom;endArrow=block;shadow=0;strokeWidth=1;" edge="1" parent="3nuBFxr9cyL0pnOWT2aG-5" target="FQo9Qr92jJREoeUoj_u--19">
          <mxGeometry relative="1" as="geometry">
            <mxPoint x="-100" y="170" as="sourcePoint" />
            <mxPoint x="79.5" y="170" as="targetPoint" />
            <Array as="points">
              <mxPoint x="15" y="170" />
            </Array>
          </mxGeometry>
        </mxCell>
        <mxCell id="FQo9Qr92jJREoeUoj_u--38" value="return" style="html=1;verticalAlign=bottom;endArrow=open;dashed=1;endSize=8;rounded=0;" edge="1" parent="3nuBFxr9cyL0pnOWT2aG-5" target="3nuBFxr9cyL0pnOWT2aG-1">
          <mxGeometry relative="1" as="geometry">
            <mxPoint x="175.68000000000006" y="320" as="sourcePoint" />
            <mxPoint x="55.00352941176442" y="320" as="targetPoint" />
          </mxGeometry>
        </mxCell>
        <mxCell id="FQo9Qr92jJREoeUoj_u--46" value="[type ==&amp;nbsp; withdrawal]" style="text;html=1;align=center;verticalAlign=middle;resizable=0;points=[];autosize=1;strokeColor=none;fillColor=none;" vertex="1" parent="3nuBFxr9cyL0pnOWT2aG-5">
          <mxGeometry x="-100" y="370" width="130" height="20" as="geometry" />
        </mxCell>
        <mxCell id="3nuBFxr9cyL0pnOWT2aG-8" value="createSession(card,PIN)" style="verticalAlign=bottom;endArrow=block;shadow=0;strokeWidth=1;" parent="1" source="3nuBFxr9cyL0pnOWT2aG-2" target="FQo9Qr92jJREoeUoj_u--5" edge="1">
          <mxGeometry relative="1" as="geometry">
            <mxPoint x="185" y="320" as="sourcePoint" />
            <Array as="points">
              <mxPoint x="200" y="320" />
            </Array>
          </mxGeometry>
        </mxCell>
        <mxCell id="FQo9Qr92jJREoeUoj_u--1" value=":Cash Dispenser" style="shape=umlLifeline;perimeter=lifelinePerimeter;container=1;collapsible=0;recursiveResize=0;rounded=0;shadow=0;strokeWidth=1;" vertex="1" parent="1">
          <mxGeometry x="1010" y="240" width="100" height="1220" as="geometry" />
        </mxCell>
        <mxCell id="FQo9Qr92jJREoeUoj_u--2" value="" style="points=[];perimeter=orthogonalPerimeter;rounded=0;shadow=0;strokeWidth=1;" vertex="1" parent="FQo9Qr92jJREoeUoj_u--1">
          <mxGeometry x="45" y="80" width="10" height="1140" as="geometry" />
        </mxCell>
        <mxCell id="FQo9Qr92jJREoeUoj_u--3" value=":Bank" style="shape=umlLifeline;perimeter=lifelinePerimeter;container=1;collapsible=0;recursiveResize=0;rounded=0;shadow=0;strokeWidth=1;" vertex="1" parent="1">
          <mxGeometry x="839" y="240" width="100" height="1180" as="geometry" />
        </mxCell>
        <mxCell id="FQo9Qr92jJREoeUoj_u--4" value="" style="points=[];perimeter=orthogonalPerimeter;rounded=0;shadow=0;strokeWidth=1;" vertex="1" parent="FQo9Qr92jJREoeUoj_u--3">
          <mxGeometry x="45" y="80" width="10" height="1100" as="geometry" />
        </mxCell>
        <mxCell id="FQo9Qr92jJREoeUoj_u--31" value="Accounts,auth" style="html=1;verticalAlign=bottom;endArrow=open;dashed=1;endSize=8;rounded=0;" edge="1" parent="FQo9Qr92jJREoeUoj_u--3" target="FQo9Qr92jJREoeUoj_u--18">
          <mxGeometry relative="1" as="geometry">
            <mxPoint x="45" y="260" as="sourcePoint" />
            <mxPoint x="-105" y="260" as="targetPoint" />
          </mxGeometry>
        </mxCell>
        <mxCell id="FQo9Qr92jJREoeUoj_u--5" value=":ATM Console" style="shape=umlLifeline;perimeter=lifelinePerimeter;container=1;collapsible=0;recursiveResize=0;rounded=0;shadow=0;strokeWidth=1;" vertex="1" parent="1">
          <mxGeometry x="210" y="240" width="110" height="1240" as="geometry" />
        </mxCell>
        <mxCell id="FQo9Qr92jJREoeUoj_u--6" value="" style="points=[];perimeter=orthogonalPerimeter;rounded=0;shadow=0;strokeWidth=1;" vertex="1" parent="FQo9Qr92jJREoeUoj_u--5">
          <mxGeometry x="45" y="80" width="10" height="1160" as="geometry" />
        </mxCell>
        <mxCell id="FQo9Qr92jJREoeUoj_u--48" value="createTransaction(type,session id,account)" style="verticalAlign=bottom;endArrow=block;shadow=0;strokeWidth=1;entryX=0.001;entryY=0.02;entryDx=0;entryDy=0;entryPerimeter=0;" edge="1" parent="FQo9Qr92jJREoeUoj_u--5" target="FQo9Qr92jJREoeUoj_u--8">
          <mxGeometry relative="1" as="geometry">
            <mxPoint x="60" y="414" as="sourcePoint" />
            <mxPoint x="230" y="414.40999999999997" as="targetPoint" />
            <Array as="points">
              <mxPoint x="165" y="414.40999999999997" />
            </Array>
          </mxGeometry>
        </mxCell>
        <mxCell id="FQo9Qr92jJREoeUoj_u--53" value="requestWitdrawal(amount,session id, transaction id)" style="verticalAlign=bottom;endArrow=block;shadow=0;strokeWidth=1;entryX=0.503;entryY=0.658;entryDx=0;entryDy=0;entryPerimeter=0;" edge="1" parent="FQo9Qr92jJREoeUoj_u--5">
          <mxGeometry relative="1" as="geometry">
            <mxPoint x="60" y="523" as="sourcePoint" />
            <mxPoint x="554.2699999999995" y="522.5600000000002" as="targetPoint" />
            <Array as="points" />
          </mxGeometry>
        </mxCell>
        <mxCell id="FQo9Qr92jJREoeUoj_u--68" value="[type ==&amp;nbsp; transfer]" style="text;html=1;align=center;verticalAlign=middle;resizable=0;points=[];autosize=1;strokeColor=none;fillColor=none;" vertex="1" parent="FQo9Qr92jJREoeUoj_u--5">
          <mxGeometry x="-20" y="843" width="110" height="20" as="geometry" />
        </mxCell>
        <mxCell id="FQo9Qr92jJREoeUoj_u--72" value="[type ==&amp;nbsp; cancel]" style="text;html=1;align=center;verticalAlign=middle;resizable=0;points=[];autosize=1;strokeColor=none;fillColor=none;" vertex="1" parent="FQo9Qr92jJREoeUoj_u--5">
          <mxGeometry x="-20" y="1103" width="100" height="20" as="geometry" />
        </mxCell>
        <mxCell id="FQo9Qr92jJREoeUoj_u--8" value="withdrawal:Transaction" style="shape=umlLifeline;perimeter=lifelinePerimeter;container=1;collapsible=0;recursiveResize=0;rounded=0;shadow=0;strokeWidth=1;" vertex="1" parent="1">
          <mxGeometry x="719" y="640" width="90" height="800" as="geometry" />
        </mxCell>
        <mxCell id="FQo9Qr92jJREoeUoj_u--9" value="" style="points=[];perimeter=orthogonalPerimeter;rounded=0;shadow=0;strokeWidth=1;" vertex="1" parent="FQo9Qr92jJREoeUoj_u--8">
          <mxGeometry x="45" y="40" width="10" height="760" as="geometry" />
        </mxCell>
        <mxCell id="FQo9Qr92jJREoeUoj_u--10" value=":Session" style="shape=umlLifeline;perimeter=lifelinePerimeter;container=1;collapsible=0;recursiveResize=0;rounded=0;shadow=0;strokeWidth=1;" vertex="1" parent="1">
          <mxGeometry x="609" y="240" width="101" height="1200" as="geometry" />
        </mxCell>
        <mxCell id="FQo9Qr92jJREoeUoj_u--11" value="" style="points=[];perimeter=orthogonalPerimeter;rounded=0;shadow=0;strokeWidth=1;" vertex="1" parent="FQo9Qr92jJREoeUoj_u--10">
          <mxGeometry x="45" y="80" width="10" height="1120" as="geometry" />
        </mxCell>
        <mxCell id="FQo9Qr92jJREoeUoj_u--37" value="session id" style="html=1;verticalAlign=bottom;endArrow=open;dashed=1;endSize=8;rounded=0;" edge="1" parent="FQo9Qr92jJREoeUoj_u--10">
          <mxGeometry relative="1" as="geometry">
            <mxPoint x="41" y="300" as="sourcePoint" />
            <mxPoint x="-79.67647058823559" y="300" as="targetPoint" />
          </mxGeometry>
        </mxCell>
        <mxCell id="FQo9Qr92jJREoeUoj_u--51" value="transaction id" style="html=1;verticalAlign=bottom;endArrow=open;dashed=1;endSize=8;rounded=0;" edge="1" parent="FQo9Qr92jJREoeUoj_u--10">
          <mxGeometry relative="1" as="geometry">
            <mxPoint x="45" y="490" as="sourcePoint" />
            <mxPoint x="-349" y="490" as="targetPoint" />
          </mxGeometry>
        </mxCell>
        <mxCell id="FQo9Qr92jJREoeUoj_u--67" value="return error" style="html=1;verticalAlign=bottom;endArrow=open;dashed=1;endSize=8;rounded=0;" edge="1" parent="FQo9Qr92jJREoeUoj_u--10" target="3nuBFxr9cyL0pnOWT2aG-5">
          <mxGeometry relative="1" as="geometry">
            <mxPoint x="167.36000000000058" y="700.3200000000002" as="sourcePoint" />
            <mxPoint x="41" y="700" as="targetPoint" />
          </mxGeometry>
        </mxCell>
        <mxCell id="FQo9Qr92jJREoeUoj_u--15" value="cardNumber" style="html=1;verticalAlign=bottom;endArrow=open;dashed=1;endSize=8;rounded=0;" edge="1" parent="1">
          <mxGeometry relative="1" as="geometry">
            <mxPoint x="409.5" y="378" as="sourcePoint" />
            <mxPoint x="259.5" y="378" as="targetPoint" />
          </mxGeometry>
        </mxCell>
        <mxCell id="FQo9Qr92jJREoeUoj_u--18" value=":ATM" style="shape=umlLifeline;perimeter=lifelinePerimeter;container=1;collapsible=0;recursiveResize=0;rounded=0;shadow=0;strokeWidth=1;" vertex="1" parent="1">
          <mxGeometry x="480" y="240" width="100" height="1220" as="geometry" />
        </mxCell>
        <mxCell id="FQo9Qr92jJREoeUoj_u--19" value="" style="points=[];perimeter=orthogonalPerimeter;rounded=0;shadow=0;strokeWidth=1;" vertex="1" parent="FQo9Qr92jJREoeUoj_u--18">
          <mxGeometry x="45" y="80" width="10" height="1140" as="geometry" />
        </mxCell>
        <mxCell id="FQo9Qr92jJREoeUoj_u--71" value="" style="endArrow=none;dashed=1;html=1;rounded=0;entryX=1.003;entryY=0.552;entryDx=0;entryDy=0;entryPerimeter=0;exitX=0.001;exitY=0.553;exitDx=0;exitDy=0;exitPerimeter=0;" edge="1" parent="FQo9Qr92jJREoeUoj_u--18">
          <mxGeometry width="50" height="50" relative="1" as="geometry">
            <mxPoint x="-297.01499999999965" y="1093.781" as="sourcePoint" />
            <mxPoint x="709.9949999999999" y="1093.004" as="targetPoint" />
          </mxGeometry>
        </mxCell>
        <mxCell id="FQo9Qr92jJREoeUoj_u--33" value="[Invalid PIN]" style="text;html=1;align=center;verticalAlign=middle;resizable=0;points=[];autosize=1;strokeColor=none;fillColor=none;" vertex="1" parent="1">
          <mxGeometry x="10" y="330" width="80" height="20" as="geometry" />
        </mxCell>
        <mxCell id="FQo9Qr92jJREoeUoj_u--30" value="checkVaild(card,PIN)" style="verticalAlign=bottom;endArrow=block;shadow=0;strokeWidth=1;" edge="1" parent="1" target="FQo9Qr92jJREoeUoj_u--4">
          <mxGeometry relative="1" as="geometry">
            <mxPoint x="540" y="430" as="sourcePoint" />
            <mxPoint x="759.5" y="430" as="targetPoint" />
            <Array as="points">
              <mxPoint x="540" y="430" />
              <mxPoint x="600" y="430" />
            </Array>
          </mxGeometry>
        </mxCell>
        <mxCell id="FQo9Qr92jJREoeUoj_u--36" value="createSession(auth)" style="verticalAlign=bottom;endArrow=block;shadow=0;strokeWidth=1;entryX=-0.253;entryY=0.409;entryDx=0;entryDy=0;entryPerimeter=0;" edge="1" parent="1">
          <mxGeometry relative="1" as="geometry">
            <mxPoint x="540" y="523" as="sourcePoint" />
            <mxPoint x="651.4699999999993" y="522.6600000000001" as="targetPoint" />
            <Array as="points" />
          </mxGeometry>
        </mxCell>
        <mxCell id="FQo9Qr92jJREoeUoj_u--39" value="requestTransaction(type,account)" style="verticalAlign=bottom;endArrow=block;shadow=0;strokeWidth=1;" edge="1" parent="1">
          <mxGeometry relative="1" as="geometry">
            <mxPoint x="80" y="590" as="sourcePoint" />
            <mxPoint x="260" y="590" as="targetPoint" />
            <Array as="points">
              <mxPoint x="195" y="590" />
            </Array>
          </mxGeometry>
        </mxCell>
        <mxCell id="FQo9Qr92jJREoeUoj_u--47" value="" style="endArrow=none;dashed=1;html=1;rounded=0;entryX=1.003;entryY=0.552;entryDx=0;entryDy=0;entryPerimeter=0;exitX=0.001;exitY=0.553;exitDx=0;exitDy=0;exitPerimeter=0;" edge="1" parent="1">
          <mxGeometry width="50" height="50" relative="1" as="geometry">
            <mxPoint x="186.0050000000001" y="1075.681" as="sourcePoint" />
            <mxPoint x="1193.0149999999999" y="1074.9040000000002" as="targetPoint" />
          </mxGeometry>
        </mxCell>
        <mxCell id="FQo9Qr92jJREoeUoj_u--50" value="transaction id" style="html=1;verticalAlign=bottom;endArrow=open;dashed=1;endSize=8;rounded=0;" edge="1" parent="1">
          <mxGeometry relative="1" as="geometry">
            <mxPoint x="760" y="710" as="sourcePoint" />
            <mxPoint x="660" y="710" as="targetPoint" />
          </mxGeometry>
        </mxCell>
        <mxCell id="FQo9Qr92jJREoeUoj_u--55" value="checkBalance(amount,session id, transaction id)" style="verticalAlign=bottom;endArrow=block;shadow=0;strokeWidth=1;" edge="1" parent="1">
          <mxGeometry relative="1" as="geometry">
            <mxPoint x="770" y="780.44" as="sourcePoint" />
            <mxPoint x="880" y="780" as="targetPoint" />
            <Array as="points" />
          </mxGeometry>
        </mxCell>
        <mxCell id="FQo9Qr92jJREoeUoj_u--56" value="alt" style="shape=umlFrame;whiteSpace=wrap;html=1;" vertex="1" parent="1">
          <mxGeometry x="719" y="790" width="429" height="170" as="geometry" />
        </mxCell>
        <mxCell id="FQo9Qr92jJREoeUoj_u--57" value="[amount &amp;lt;= balance]" style="text;html=1;align=center;verticalAlign=middle;resizable=0;points=[];autosize=1;strokeColor=none;fillColor=none;" vertex="1" parent="1">
          <mxGeometry x="774" y="800" width="130" height="20" as="geometry" />
        </mxCell>
        <mxCell id="FQo9Qr92jJREoeUoj_u--60" value="requestWitdrawal(amount,account, auth)" style="verticalAlign=bottom;endArrow=block;shadow=0;strokeWidth=1;" edge="1" parent="1">
          <mxGeometry relative="1" as="geometry">
            <mxPoint x="779" y="850.44" as="sourcePoint" />
            <mxPoint x="880" y="850" as="targetPoint" />
            <Array as="points" />
          </mxGeometry>
        </mxCell>
        <mxCell id="FQo9Qr92jJREoeUoj_u--61" value="return approval" style="html=1;verticalAlign=bottom;endArrow=open;dashed=1;endSize=8;rounded=0;" edge="1" parent="1">
          <mxGeometry relative="1" as="geometry">
            <mxPoint x="876.3600000000004" y="874.4100000000001" as="sourcePoint" />
            <mxPoint x="530" y="874" as="targetPoint" />
          </mxGeometry>
        </mxCell>
        <mxCell id="FQo9Qr92jJREoeUoj_u--62" value="dispense cash(amount)" style="verticalAlign=bottom;endArrow=block;shadow=0;strokeWidth=1;entryX=0.795;entryY=0.706;entryDx=0;entryDy=0;entryPerimeter=0;" edge="1" parent="1">
          <mxGeometry relative="1" as="geometry">
            <mxPoint x="539.9999999999995" y="1027.44" as="sourcePoint" />
            <mxPoint x="1060.0549999999998" y="1027.0200000000002" as="targetPoint" />
            <Array as="points" />
          </mxGeometry>
        </mxCell>
        <mxCell id="FQo9Qr92jJREoeUoj_u--63" value="return cash" style="html=1;verticalAlign=bottom;endArrow=open;dashed=1;endSize=8;rounded=0;" edge="1" parent="1">
          <mxGeometry relative="1" as="geometry">
            <mxPoint x="1056.3600000000006" y="1053.41" as="sourcePoint" />
            <mxPoint x="79.32352941176464" y="1053.41" as="targetPoint" />
          </mxGeometry>
        </mxCell>
        <mxCell id="FQo9Qr92jJREoeUoj_u--64" value="" style="endArrow=none;dashed=1;html=1;rounded=0;entryX=1.012;entryY=0.558;entryDx=0;entryDy=0;entryPerimeter=0;" edge="1" parent="1" target="FQo9Qr92jJREoeUoj_u--56">
          <mxGeometry width="50" height="50" relative="1" as="geometry">
            <mxPoint x="720" y="885" as="sourcePoint" />
            <mxPoint x="1523.5" y="920" as="targetPoint" />
          </mxGeometry>
        </mxCell>
        <mxCell id="FQo9Qr92jJREoeUoj_u--65" value="[amount &amp;gt; balance]" style="text;html=1;align=center;verticalAlign=middle;resizable=0;points=[];autosize=1;strokeColor=none;fillColor=none;" vertex="1" parent="1">
          <mxGeometry x="725" y="890" width="120" height="20" as="geometry" />
        </mxCell>
        <mxCell id="FQo9Qr92jJREoeUoj_u--66" value="return error" style="html=1;verticalAlign=bottom;endArrow=open;dashed=1;endSize=8;rounded=0;" edge="1" parent="1">
          <mxGeometry relative="1" as="geometry">
            <mxPoint x="896.3600000000006" y="921.32" as="sourcePoint" />
            <mxPoint x="770" y="921" as="targetPoint" />
          </mxGeometry>
        </mxCell>
        <mxCell id="FQo9Qr92jJREoeUoj_u--69" value="" style="endArrow=none;dashed=1;html=1;rounded=0;entryX=1.003;entryY=0.552;entryDx=0;entryDy=0;entryPerimeter=0;exitX=0.001;exitY=0.553;exitDx=0;exitDy=0;exitPerimeter=0;" edge="1" parent="1">
          <mxGeometry width="50" height="50" relative="1" as="geometry">
            <mxPoint x="182.9850000000001" y="1273.781" as="sourcePoint" />
            <mxPoint x="1189.995" y="1273.0040000000001" as="targetPoint" />
          </mxGeometry>
        </mxCell>
        <mxCell id="FQo9Qr92jJREoeUoj_u--70" value="[type ==&amp;nbsp; inquiryl]" style="text;html=1;align=center;verticalAlign=middle;resizable=0;points=[];autosize=1;strokeColor=none;fillColor=none;" vertex="1" parent="1">
          <mxGeometry x="185" y="1283" width="110" height="20" as="geometry" />
        </mxCell>
        <mxCell id="FQo9Qr92jJREoeUoj_u--73" value=":Receipt Printer" style="shape=umlLifeline;perimeter=lifelinePerimeter;container=1;collapsible=0;recursiveResize=0;rounded=0;shadow=0;strokeWidth=1;" vertex="1" parent="1">
          <mxGeometry x="1130" y="240" width="100" height="1220" as="geometry" />
        </mxCell>
        <mxCell id="FQo9Qr92jJREoeUoj_u--74" value="" style="points=[];perimeter=orthogonalPerimeter;rounded=0;shadow=0;strokeWidth=1;" vertex="1" parent="FQo9Qr92jJREoeUoj_u--73">
          <mxGeometry x="45" y="80" width="10" height="1140" as="geometry" />
        </mxCell>
      </root>
    </mxGraphModel>
  </diagram>
</mxfile>
